<svg preserveAspectRatio="none" width="100%" height="100%" overflow="visible" style="display: block;" viewBox="0 0 24 24" fill="none" xmlns="http://www.w3.org/2000/svg">
<g id="Icon / contain">
<path id="Vector" d="M19 4H5C3.89543 4 3 4.89543 3 6V18C3 19.1046 3.89543 20 5 20H19C20.1046 20 21 19.1046 21 18V6C21 4.89543 20.1046 4 19 4Z" stroke="var(--stroke-0, #A6ACC7)" stroke-width="2" stroke-linecap="round" stroke-linejoin="round"/>
<path id="Vector_2" d="M16 8H8C7.44772 8 7 8.44772 7 9V15C7 15.5523 7.44772 16 8 16H16C16.5523 16 17 15.5523 17 15V9C17 8.44772 16.5523 8 16 8Z" stroke="var(--stroke-0, #A6ACC7)" stroke-width="2" stroke-linecap="round" stroke-linejoin="round"/>
</g>
</svg>
